<svg xmlns="http://www.w3.org/2000/svg" width="128" height="128" viewBox="0 0 128 128">
  <defs>
    <linearGradient id="brand" x1="18" y1="8" x2="109" y2="120" gradientUnits="userSpaceOnUse"><stop stop-color="#cdbf9e"/><stop offset=".55" stop-color="#9a8b6c"/><stop offset="1" stop-color="#5b5547"/></linearGradient>
    <linearGradient id="paper" x1="38" y1="30" x2="93" y2="96" gradientUnits="userSpaceOnUse"><stop stop-color="#fff"/><stop offset="1" stop-color="#e7e0cd"/></linearGradient>
  </defs>
  <rect x="8" y="8" width="112" height="112" rx="28" fill="url(#brand)"/>
  <rect x="8.5" y="8.5" width="111" height="111" rx="27.5" fill="none" stroke="#fff" stroke-opacity=".18"/>
  <g stroke="#fff" stroke-width="3.5" stroke-linecap="round" fill="none" opacity=".72"><path d="M26 43V33a7 7 0 0 1 7-7h10M85 26h10a7 7 0 0 1 7 7v10M102 85v10a7 7 0 0 1-7 7H85M43 102H33a7 7 0 0 1-7-7V85"/></g>
  <g transform="rotate(-7 64 64)">
    <path d="M45 35h32l16 16v43a8 8 0 0 1-8 8H45a8 8 0 0 1-8-8V43a8 8 0 0 1 8-8" fill="#27251f" opacity=".16"/>
    <path d="M45 29h30l17 17v42a8 8 0 0 1-8 8H45a8 8 0 0 1-8-8V37a8 8 0 0 1 8-8" fill="url(#paper)"/>
    <path d="M75 29v12a5 5 0 0 0 5 5h12" fill="#c4b797"/>
    <path d="M49 60h27M49 71h20" stroke="#93805a" stroke-width="4" stroke-linecap="round"/>
  </g>
</svg>
